<svg fill="#000000" xmlns="http://www.w3.org/2000/svg" viewBox="0 0 26 26" width="104px" height="104px"><path d="M 3 3 C 1.34375 3 0 4.34375 0 6 L 0 20 C 0 21.035156 0.542969 21.933594 1.34375 22.46875 C 1.46875 22.550781 1.582031 22.625 1.71875 22.6875 C 1.757813 22.710938 1.800781 22.730469 1.84375 22.75 C 2.191406 22.910156 2.570313 23 2.96875 23 L 18.96875 23 C 20.570313 23 22.066406 22.035156 22.6875 20.5625 L 22.6875 20.53125 L 25.78125 12.21875 L 25.78125 12.1875 C 26.078125 11.457031 26.085938 10.609375 25.65625 9.96875 C 25.222656 9.316406 24.425781 9 23.625 9 L 22 9 C 22 7.34375 20.65625 6 19 6 L 11 6 C 11 4.34375 9.65625 3 8 3 Z M 7.625 11 L 23.625 11 C 23.929688 11 23.992188 11.082031 24 11.09375 C 24.007813 11.105469 24.054688 11.160156 23.9375 11.4375 L 23.9375 11.5 L 20.84375 19.78125 L 20.8125 19.8125 C 20.554688 20.359375 19.566406 21 18.96875 21 L 2.96875 21 C 2.664063 21 2.632813 20.917969 2.625 20.90625 C 2.617188 20.894531 2.570313 20.839844 2.6875 20.5625 L 2.6875 20.53125 L 5.78125 12.21875 C 5.785156 12.207031 5.808594 12.199219 5.8125 12.1875 C 6.070313 11.640625 7.027344 11 7.625 11 Z"/></svg>